# xmcd
#
# Track frame offsets:
#	150
#	24181
#	51879
#	63582
#	68921
#	85049
#	106804
#	113734
#	134071
#	150085
#	156856
#	171596
#	181476
#	200742
#	222482
#	229472
#	246631
#	267903
#	278356
#	299547
#	316542
#	326091
#	335950
#
# Disc length: 4610 seconds
#
# Revision: 1
# Processed by: cddbd v1.5.2PL0 Copyright (c) Steve Scherf et al.
# Submitted via: audiograbber 1.83.01
#
DISCID=61120017
DTITLE=Horst Conen - Der Taschenoptimist
DYEAR=2005
DGENRE=Hörbuch
TTITLE0=Erster Tag - Ich fange jeden Tag neu an 1
TTITLE1=Erster Tag - Ich fange jeden Tag neu an 2
TTITLE2=Erster Tag - Ich fange jeden Tag neu an 3
TTITLE3=Kurzprogramm: Lieber fröhlich als mürrisch
TTITLE4=Zweiter Tag - Im Beruf sich selbst einbringen 1
TTITLE5=Zweiter Tag - Im Beruf sich selbst einbringen 2
TTITLE6=Kurzprogramm: Lieber gutgelaunt als verdrossen und missmutig
TTITLE7=Dritter Tag - Ich unternehme immer den ersten Schritt 1
TTITLE8=Dritter Tag - Ich unternehme immer den ersten Schritt 2
TTITLE9=Kurzprogramm: Den Alltagskram auflockern, statt darüber zu stöhnen
TTITLE10=Vierter Tag - Ich rede mir gut zu 1
TTITLE11=Vierter Tag - Ich rede mir gut zu 2
TTITLE12=Vierter Tag - Ich rede mir gut zu 3
TTITLE13=Vierter Tag - Ich rede mir gut zu 4
TTITLE14=Kurzprogramm: Lieber selbstbewusst als unbewusst
TTITLE15=Fünfter Tag - Ich mache aus allem das Beste 1
TTITLE16=Fünfter Tag - Ich mache aus allem das Beste 2
TTITLE17=Kurzprogramm: Lieber sich ändern, als zu versauern
TTITLE18=Sechster Tag - Ich schenke dem Leben mein Vertrauen 1
TTITLE19=Sechster Tag - Ich schenke dem Leben mein Vertrauen 2
TTITLE20=Kurzprogramm: Besser sich neu verlieben, als zu verzagen
TTITLE21=Siebter Tag - Ich lebe nach Herzenslust
TTITLE22=Kurzprogramm: Lieber positiv denken als Trübsal blasen
EXTD=
EXTT0=
EXTT1=
EXTT2=
EXTT3=
EXTT4=
EXTT5=
EXTT6=
EXTT7=
EXTT8=
EXTT9=
EXTT10=
EXTT11=
EXTT12=
EXTT13=
EXTT14=
EXTT15=
EXTT16=
EXTT17=
EXTT18=
EXTT19=
EXTT20=
EXTT21=
EXTT22=
PLAYORDER=
